<svg width="30" height="27" viewBox="0 0 30 27" fill="none" xmlns="http://www.w3.org/2000/svg">
<path d="M26.4375 25.5938C26.4375 25.9667 26.2893 26.3244 26.0256 26.5881C25.7619 26.8518 25.4042 27 25.0312 27H4.40625C4.03329 27 3.6756 26.8518 3.41188 26.5881C3.14816 26.3244 3 25.9667 3 25.5938C3 25.2208 3.14816 24.8631 3.41188 24.5994C3.6756 24.3357 4.03329 24.1875 4.40625 24.1875H25.0312C25.4042 24.1875 25.7619 24.3357 26.0256 24.5994C26.2893 24.8631 26.4375 25.2208 26.4375 25.5938ZM26.4375 16.2188V19.9688C26.4344 20.5894 26.1865 21.1838 25.7476 21.6226C25.3088 22.0615 24.7144 22.3094 24.0938 22.3125H5.34375C4.7231 22.3094 4.12874 22.0615 3.68987 21.6226C3.251 21.1838 3.00308 20.5894 3 19.9688V16.2188C3.00308 15.5981 3.251 15.0037 3.68987 14.5649C4.12874 14.126 4.7231 13.8781 5.34375 13.875H11.1094L9.38672 5.84766C9.25578 5.23293 9.26384 4.59672 9.41033 3.98552C9.55681 3.37431 9.83801 2.80356 10.2334 2.31497C10.6287 1.82638 11.1283 1.43231 11.6955 1.16155C12.2627 0.890783 12.8832 0.750176 13.5117 0.75H15.9258C16.5543 0.750176 17.1748 0.890783 17.742 1.16155C18.3092 1.43231 18.8088 1.82638 19.2041 2.31497C19.5995 2.80356 19.8807 3.37431 20.0272 3.98552C20.1737 4.59672 20.1817 5.23293 20.0508 5.84766L18.3281 13.875H24.0938C24.7144 13.8781 25.3088 14.126 25.7476 14.5649C26.1865 15.0037 26.4344 15.5981 26.4375 16.2188ZM13.9805 13.875H15.457L17.2969 5.26172C17.3423 5.05787 17.3407 4.84632 17.2919 4.64322C17.2432 4.44013 17.1487 4.25085 17.0156 4.08984C16.8877 3.92303 16.7225 3.78846 16.5333 3.6969C16.344 3.60533 16.136 3.5593 15.9258 3.5625H13.5117C13.3015 3.5593 13.0935 3.60533 12.9042 3.6969C12.715 3.78846 12.5498 3.92303 12.4219 4.08984C12.2888 4.25085 12.1943 4.44013 12.1456 4.64322C12.0968 4.84632 12.0952 5.05787 12.1406 5.26172L13.9805 13.875ZM23.625 16.6875H5.8125V19.5H23.625V16.6875Z" fill="#CCCCCC"/>
</svg>
