<svg width="20" height="31" viewBox="0 0 20 31" fill="none" xmlns="http://www.w3.org/2000/svg">
<path d="M10 17.9994C12.7575 17.9994 15 15.7569 15 12.9994C15 10.2419 12.7575 7.99939 10 7.99939C7.2425 7.99939 5 10.2419 5 12.9994C5 15.7569 7.2425 17.9994 10 17.9994ZM10 10.4994C11.3788 10.4994 12.5 11.6206 12.5 12.9994C12.5 14.3781 11.3788 15.4994 10 15.4994C8.62125 15.4994 7.5 14.3781 7.5 12.9994C7.5 11.6206 8.62125 10.4994 10 10.4994Z" fill="#CCCCCC"/>
<path d="M9.27499 27.7669C9.48655 27.918 9.74002 27.9992 9.99999 27.9992C10.26 27.9992 10.5134 27.918 10.725 27.7669C11.105 27.4981 20.0362 21.0494 20 12.9994C20 7.48564 15.5137 2.99939 9.99999 2.99939C4.48624 2.99939 -1.20232e-05 7.48564 -1.20232e-05 12.9931C-0.036262 21.0494 8.89499 27.4981 9.27499 27.7669ZM9.99999 5.49939C14.1362 5.49939 17.5 8.86314 17.5 13.0056C17.5262 18.5531 12.015 23.5344 9.99999 25.1681C7.98624 23.5331 2.47374 18.5506 2.49999 12.9994C2.49999 8.86314 5.86374 5.49939 9.99999 5.49939Z" fill="#CCCCCC"/>
</svg>
