<svg width="26" height="25" viewBox="0 0 26 25" fill="none" xmlns="http://www.w3.org/2000/svg">
<path d="M21.75 2.50006H19.25V1.25006C19.25 0.918541 19.1183 0.600598 18.8839 0.366178C18.6495 0.131757 18.3315 6.10352e-05 18 6.10352e-05C17.6685 6.10352e-05 17.3505 0.131757 17.1161 0.366178C16.8817 0.600598 16.75 0.918541 16.75 1.25006V2.50006H9.25001V1.25006C9.25001 0.918541 9.11831 0.600598 8.88389 0.366178C8.64947 0.131757 8.33153 6.10352e-05 8 6.10352e-05C7.66848 6.10352e-05 7.35054 0.131757 7.11612 0.366178C6.8817 0.600598 6.75 0.918541 6.75 1.25006V2.50006H4.25C3.25544 2.50006 2.30161 2.89515 1.59835 3.59841C0.895089 4.30167 0.5 5.2555 0.5 6.25007V21.2501C0.5 22.2446 0.895089 23.1985 1.59835 23.9017C2.30161 24.605 3.25544 25.0001 4.25 25.0001H21.75C22.7446 25.0001 23.6984 24.605 24.4017 23.9017C25.1049 23.1985 25.5 22.2446 25.5 21.2501V6.25007C25.5 5.2555 25.1049 4.30167 24.4017 3.59841C23.6984 2.89515 22.7446 2.50006 21.75 2.50006ZM23 21.2501C23 21.5816 22.8683 21.8995 22.6339 22.134C22.3995 22.3684 22.0815 22.5001 21.75 22.5001H4.25C3.91848 22.5001 3.60054 22.3684 3.36612 22.134C3.1317 21.8995 3 21.5816 3 21.2501V12.5001H23V21.2501ZM23 10.0001H3V6.25007C3 5.91854 3.1317 5.6006 3.36612 5.36618C3.60054 5.13176 3.91848 5.00006 4.25 5.00006H6.75V6.25007C6.75 6.58159 6.8817 6.89953 7.11612 7.13395C7.35054 7.36837 7.66848 7.50007 8 7.50007C8.33153 7.50007 8.64947 7.36837 8.88389 7.13395C9.11831 6.89953 9.25001 6.58159 9.25001 6.25007V5.00006H16.75V6.25007C16.75 6.58159 16.8817 6.89953 17.1161 7.13395C17.3505 7.36837 17.6685 7.50007 18 7.50007C18.3315 7.50007 18.6495 7.36837 18.8839 7.13395C19.1183 6.89953 19.25 6.58159 19.25 6.25007V5.00006H21.75C22.0815 5.00006 22.3995 5.13176 22.6339 5.36618C22.8683 5.6006 23 5.91854 23 6.25007V10.0001Z" fill="#CCCCCC"/>
</svg>
