<svg width="24" height="25" viewBox="0 0 24 25" fill="none" xmlns="http://www.w3.org/2000/svg">
<path d="M3 3.5H6V6.5H3V3.5Z" fill="black"/>
<path d="M9 0.5V9.5H0V0.5H9ZM7.5 2H1.5V8H7.5V2ZM6 18.5H3V21.5H6V18.5Z" fill="black"/>
<path d="M9 15.5V24.5H0V15.5H9ZM1.5 17V23H7.5V17H1.5ZM18 3.5H21V6.5H18V3.5Z" fill="black"/>
<path d="M15 0.5V9.5H24V0.5H15ZM22.5 2V8H16.5V2H22.5ZM12 2V0.5H13.5V3.5H12V6.5H10.5V2H12ZM12 9.5V6.5H13.5V9.5H12ZM9 12.5V11H10.5V9.5H12V12.5H13.5V11H21V12.5H15V14H10.5V12.5H9ZM9 12.5V14H3V12.5H1.5V14H0V11H4.5V12.5H9ZM24 14H22.5V11H24V14ZM22.5 14H21V17H24V15.5H22.5V14ZM16.5 14H19.5V15.5H18V17H16.5V14ZM19.5 18.5V17H18V18.5H16.5V20H13.5V21.5H18V18.5H19.5ZM19.5 18.5H24V20H21V21.5H19.5V18.5ZM13.5 17V18.5H15V15.5H10.5V17H13.5Z" fill="black"/>
<path d="M10.5 18.5H12V23H18V24.5H10.5V18.5ZM24 21.5V24.5H19.5V23H22.5V21.5H24Z" fill="black"/>
</svg>
